<svg width="2519" height="216" viewBox="0 0 2519 216" fill="none" xmlns="http://www.w3.org/2000/svg">
<path d="M245.321 127.181C260.486 160.417 244.443 195.362 207.456 209.553C199.873 212.481 163.995 214.114 99.8225 214.453C46.8382 214.73 3.10075 214.545 2.54594 214.129C1.99113 213.667 1.66749 205.254 1.85243 195.362L2.12983 177.427L94.0433 176.595C198.024 175.671 193.863 176.225 200.289 162.358C206.577 148.86 201.168 135.686 186.835 129.677C180.732 127.135 173.196 126.765 124.188 126.765C63.6674 126.719 55.9926 125.933 37.1291 117.474C13.1798 106.796 0.234232 88.0752 0.00306181 63.6687C-0.228109 36.8123 12.625 19.0621 40.5966 7.73705L56.1313 1.4043H240.652V37.9679L153.454 38.7999C73.8852 39.5395 65.7942 39.8631 60.7085 42.5903C42.261 52.5286 42.9083 76.288 61.8181 84.7933C67.736 87.4281 75.9195 87.8441 132.279 88.5837C174.814 89.1384 199.919 90.9565 207.594 94.0382C222.482 100.047 239.958 115.394 245.321 127.181Z" fill="black"/>
<path d="M350.597 0.915527H302.005V215.074H350.597V0.915527Z" fill="black"/>
<path d="M683.625 0.892416H707.435V215.05H658.843L658.335 140.953L657.78 66.901L635.033 92.4169C563.231 172.94 565.173 170.999 555.048 171.553C546.171 172.015 545.662 171.784 538.866 164.065C493.51 112.525 470.162 86.1304 461.562 76.793L451.206 65.5605L450.189 139.889L449.172 214.218L425.407 214.681L401.597 215.143V0.846191H452.316L470.532 21.185C480.565 32.3713 495.452 49.0121 503.635 58.1646C511.773 67.2708 526.706 83.9116 536.785 95.1442L555.048 115.529L561.012 109.243C567.485 102.448 634.709 27.3791 647.701 12.4948C652.047 7.45629 656.578 2.78762 657.734 2.14048C658.89 1.44711 670.541 0.892416 683.625 0.892416Z" fill="black"/>
<path d="M1007.59 57.5405C1000.42 30.869 974.025 8.63502 942.494 2.67206C937.269 1.65512 897.647 0.961752 846.003 0.915527H758.436V215.074H807.028V153.872L874.345 153.271C939.396 152.717 942.078 152.578 953.22 148.834C976.106 141.161 998.622 121.145 1005.7 102.286C1009.3 92.6711 1010.32 67.8486 1007.59 57.5405ZM953.867 100.668C950.492 104.551 943.742 109.451 938.841 111.577C930.057 115.414 928.901 115.46 868.473 115.46H807.028V38.9121L869.305 39.4205C940.136 39.9752 942.17 40.345 953.867 53.8888C959.6 60.5913 959.924 61.7932 959.924 77.2784C959.924 92.7636 959.6 93.9654 953.867 100.668Z" fill="black"/>
<path d="M1291.64 201.438L1291.82 214.288L1176.01 214.704L1060.14 215.166V0.823242L1083.68 1.28549L1107.16 1.79396L1107.44 89.3432L1107.76 176.939H1291.04L1291.22 182.763C1291.36 185.952 1291.54 194.365 1291.64 201.438Z" fill="black"/>
<path d="M1391.46 0.869629L1390.95 107.51L1390.4 214.196L1366.63 214.658L1342.82 215.12V0.869629H1391.46Z" fill="black"/>
<path d="M1626.16 0.915527H1701.66V38.9121L1625.24 39.4205C1574.25 39.7595 1545.05 41.362 1537.62 44.2279C1520.38 50.9767 1508.45 60.6838 1499.71 75.1983C1492.08 87.8638 1492.08 87.9562 1492.08 108.757C1492.08 129.558 1492.27 130.021 1498.65 140.56C1506.55 153.734 1521.02 165.382 1537.21 171.623C1544.91 174.581 1574.25 176.23 1625.24 176.569L1701.66 177.031V215.074L1626.25 214.981C1558.75 214.889 1549.23 214.565 1536.05 211.745C1489.68 201.761 1455.79 172.778 1445.29 134.042C1440.35 115.876 1442.06 87.078 1449.04 70.9456C1459.86 45.8457 1484.31 22.8259 1511.73 11.8245C1538.08 1.28532 1542.2 0.915527 1626.16 0.915527Z" fill="black"/>
<path d="M1801.3 0.869629L1800.79 107.51L1800.24 214.196L1776.47 214.658L1752.66 215.12V0.869629H1801.3Z" fill="black"/>
<path d="M2195.12 47.0186C2182.08 25.6629 2154.94 7.77401 2127.76 2.64309C2122.21 1.57992 2083.51 0.886557 2029.23 0.840332C1945.69 0.840332 1938.98 1.02523 1926.82 4.12227C1891.87 12.9511 1861.86 39.7151 1854.56 68.5592C1851.14 81.9643 1851.74 135.585 1855.44 148.435C1859.88 163.92 1869.63 177.834 1884.66 190.13C1899.13 201.963 1912.63 208.666 1929.46 212.364C1946.01 216.015 2111.67 216.108 2128.68 212.456C2161.6 205.43 2188.69 184.952 2201.13 157.634C2205.15 148.805 2205.71 144.044 2206.31 112.472C2207.09 72.3034 2205.75 64.4452 2195.12 47.0186ZM2154.66 151.255C2148.75 160.361 2132.15 172.379 2122.16 174.829C2116.48 176.216 2088.69 176.817 2028.17 176.817C1970.87 176.817 1938.74 175.399 1931.77 172.564C1919.7 167.618 1910.22 159.437 1904.17 148.666C1900.28 141.825 1899.91 138.173 1899.91 108.59C1899.91 86.8949 1902.27 72.2264 1906.99 64.5839C1914.76 52.0571 1926.45 43.9678 1941.62 40.6396C1946.75 39.484 1979.62 39.0218 2035.1 39.3453C2118.42 39.8076 2120.87 39.9463 2128.77 43.4131C2138.34 47.712 2150.13 57.4653 2155.36 65.5546C2158.69 70.7318 2159.15 75.4929 2159.15 107.896C2159.15 142.38 2158.87 144.83 2154.66 151.255Z" fill="#0457FC"/>
<path d="M2195.12 47.0186C2182.08 25.6629 2154.94 7.77401 2127.76 2.64309C2122.21 1.57992 2083.51 0.886557 2029.23 0.840332C1945.69 0.840332 1938.98 1.02523 1926.82 4.12227C1891.87 12.9511 1861.86 39.7151 1854.56 68.5592C1851.14 81.9643 1851.74 135.585 1855.44 148.435C1859.88 163.92 1869.63 177.834 1884.66 190.13C1899.13 201.963 1912.63 208.666 1929.46 212.364C1946.01 216.015 2111.67 216.108 2128.68 212.456C2161.6 205.43 2188.69 184.952 2201.13 157.634C2205.15 148.805 2205.71 144.044 2206.31 112.472C2207.09 72.3034 2205.75 64.4452 2195.12 47.0186ZM2154.66 151.255C2148.75 160.361 2132.15 172.379 2122.16 174.829C2116.48 176.216 2088.69 176.817 2028.17 176.817C1970.87 176.817 1938.74 175.399 1931.77 172.564C1919.7 167.618 1910.22 159.437 1904.17 148.666C1900.28 141.825 1899.91 138.173 1899.91 108.59C1899.91 86.8949 1902.27 72.2264 1906.99 64.5839C1914.76 52.0571 1926.45 43.9678 1941.62 40.6396C1946.75 39.484 1979.62 39.0218 2035.1 39.3453C2118.42 39.8076 2120.87 39.9463 2128.77 43.4131C2138.34 47.712 2150.13 57.4653 2155.36 65.5546C2158.69 70.7318 2159.15 75.4929 2159.15 107.896C2159.15 142.38 2158.87 144.83 2154.66 151.255Z" stroke="url(#paint0_linear_55_10)" stroke-width="1.68033"/>
<path d="M2195.12 47.0186C2182.08 25.6629 2154.94 7.77401 2127.76 2.64309C2122.21 1.57992 2083.51 0.886557 2029.23 0.840332C1945.69 0.840332 1938.98 1.02523 1926.82 4.12227C1891.87 12.9511 1861.86 39.7151 1854.56 68.5592C1851.14 81.9643 1851.74 135.585 1855.44 148.435C1859.88 163.92 1869.63 177.834 1884.66 190.13C1899.13 201.963 1912.63 208.666 1929.46 212.364C1946.01 216.015 2111.67 216.108 2128.68 212.456C2161.6 205.43 2188.69 184.952 2201.13 157.634C2205.15 148.805 2205.71 144.044 2206.31 112.472C2207.09 72.3034 2205.75 64.4452 2195.12 47.0186ZM2154.66 151.255C2148.75 160.361 2132.15 172.379 2122.16 174.829C2116.48 176.216 2088.69 176.817 2028.17 176.817C1970.87 176.817 1938.74 175.399 1931.77 172.564C1919.7 167.618 1910.22 159.437 1904.17 148.666C1900.28 141.825 1899.91 138.173 1899.91 108.59C1899.91 86.8949 1902.27 72.2264 1906.99 64.5839C1914.76 52.0571 1926.45 43.9678 1941.62 40.6396C1946.75 39.484 1979.62 39.0218 2035.1 39.3453C2118.42 39.8076 2120.87 39.9463 2128.77 43.4131C2138.34 47.712 2150.13 57.4653 2155.36 65.5546C2158.69 70.7318 2159.15 75.4929 2159.15 107.896C2159.15 142.38 2158.87 144.83 2154.66 151.255Z" stroke="url(#paint1_linear_55_10)" stroke-width="1.68033"/>
<path d="M2518.76 0.869629V215.028H2470.31L2445.71 191.361C2432.21 178.372 2395.5 143.38 2364.11 113.657L2307.1 59.621L2306.13 136.908L2305.12 214.196L2281.3 214.658L2257.49 215.12V0.869629H2307.94L2334.2 25.3224C2377.38 65.5839 2407.06 93.7346 2438.96 124.474L2469.15 153.595L2469.66 77.2325L2470.22 0.869629H2518.76Z" fill="black"/>
<defs>
<linearGradient id="paint0_linear_55_10" x1="1779.27" y1="-12.5482" x2="2041.4" y2="170.608" gradientUnits="userSpaceOnUse">
<stop offset="0.159376" stop-color="white"/>
<stop offset="1" stop-color="#999999" stop-opacity="0"/>
</linearGradient>
<linearGradient id="paint1_linear_55_10" x1="2088.45" y1="116.837" x2="2217.84" y2="215.137" gradientUnits="userSpaceOnUse">
<stop stop-opacity="0"/>
<stop offset="1" stop-color="white"/>
</linearGradient>
</defs>
</svg>
