<svg width="560" height="559" viewBox="0 0 560 559" fill="none" xmlns="http://www.w3.org/2000/svg">
<path d="M557.816 246.943C555.296 225.142 550.256 204.102 542.99 184.128C536.936 167.395 529.309 151.395 520.283 136.314C514.829 127.168 508.856 118.368 502.416 109.941C489.749 93.3672 475.269 78.247 459.282 64.9001C422.788 35.0997 378.894 14.6595 332.467 5.486C331.453 5.286 330.453 5.08599 329.44 4.89932C328.427 4.71266 327.413 4.52599 326.387 4.33932C324.093 3.93931 321.787 3.55264 319.48 3.20597C312.84 2.20596 306.16 1.43261 299.453 0.885938C298.493 0.805937 297.52 0.739269 296.56 0.672601C295.453 0.605934 294.346 0.525933 293.24 0.459265C291.026 0.339264 288.813 0.232596 286.6 0.152595C285.493 0.112594 284.386 0.0859271 283.279 0.05926C282.359 0.032593 281.439 0.0192595 280.519 0.005926H280.173C279.786 0.005926 279.413 0.005926 279.026 0.005926H278.853C278.853 0.005926 278.706 -0.00740751 278.626 0.005926C278.266 0.005926 277.906 0.005926 277.546 0.005926H277.199C276.279 0.0192595 275.359 0.032593 274.439 0.05926C273.333 0.0859271 272.226 0.112594 271.119 0.152595C268.906 0.232596 266.693 0.339264 264.479 0.459265C263.373 0.525933 262.266 0.605934 261.159 0.672601C260.199 0.739269 259.226 0.805937 258.266 0.885938C251.559 1.43261 244.879 2.20596 238.239 3.20597C235.932 3.55264 233.626 3.93931 231.332 4.33932C230.305 4.52599 229.292 4.71266 228.279 4.89932C227.265 5.08599 226.265 5.286 225.252 5.486C215.865 7.33936 206.572 9.65939 197.438 12.4194C89.5436 45.0065 1.66245 139.541 0.00909697 270.383C-0.0575706 275.356 0.2491 280.343 0.702439 285.303C0.755773 288.343 0.862442 291.37 1.02244 294.383C1.40912 301.743 2.08912 309.037 3.0358 316.237C9.38255 364.651 28.1295 409.171 55.9965 446.505C62.2233 454.865 68.93 462.865 76.0368 470.465C80.9302 475.692 86.0236 480.719 91.2903 485.559C128.837 519.986 175.825 544.293 227.919 554.147C230.319 554.6 232.745 555.027 235.172 555.413C248.972 557.653 263.133 558.867 277.533 559C278.359 559 279.186 559 280.013 559H280.159C280.613 559 281.079 559 281.533 559C281.599 559 281.679 559 281.746 559C286.306 558.973 290.84 558.84 295.346 558.6C295.506 558.6 295.653 558.6 295.8 558.573C440.068 550.627 555.163 433.292 559.55 288.09C559.643 285.236 559.683 282.37 559.683 279.49C559.683 268.476 559.043 257.623 557.803 246.943H557.816ZM444.242 356.877C418.295 408.171 348.88 447.305 314.467 380.398C313.787 379.078 313.133 377.744 312.48 376.398C294.653 339.157 290.573 293.596 284.266 253.383C282.479 250.743 280.573 249.809 278.866 250.169C278.533 250.089 278.186 250.076 277.839 250.103C276.413 250.236 274.893 251.249 273.453 253.383C266.919 295.05 262.773 342.45 243.252 380.398C230.119 405.945 211.879 416.025 192.905 415.891C192.545 415.878 192.198 415.878 191.852 415.878C161.238 415.411 128.797 388.451 112.837 356.877C64.3699 261.049 114.277 147.595 211.905 109.874C233.465 101.541 255.679 97.6606 277.546 97.6872C277.986 97.6872 278.426 97.6872 278.866 97.7006H280.173C301.84 97.7272 323.827 101.621 345.174 109.874C442.802 147.595 492.709 261.049 444.242 356.877Z" fill="black"/>
<path d="M309.614 238.235C305.147 245.542 295.36 232.889 290.547 229.782C285.76 226.675 282.027 225.395 278.867 225.342C275.707 225.395 271.96 226.675 267.173 229.782C262.36 232.889 252.573 245.542 248.106 238.235C240.413 225.675 256.213 191.248 263.827 179.808C268.8 172.355 273.08 167.021 277.547 165.661C277.987 165.528 278.427 165.434 278.867 165.381C279.307 165.434 279.747 165.528 280.173 165.661C284.64 167.021 288.92 172.355 293.894 179.808C301.507 191.248 317.307 225.675 309.614 238.235Z" fill="#2563EB"/>
</svg>
