<svg width="2420" height="216" viewBox="0 0 2420 216" fill="none" xmlns="http://www.w3.org/2000/svg">
<path d="M245.321 126.756C260.486 159.991 244.443 194.937 207.456 209.128C199.873 212.055 163.995 213.689 99.8225 214.028C46.8382 214.305 3.10075 214.12 2.54594 213.704C1.99113 213.242 1.66749 204.829 1.85243 194.937L2.12983 177.002L94.0433 176.17C198.024 175.245 193.863 175.8 200.289 161.933C206.577 148.435 201.168 135.261 186.835 129.252C180.732 126.71 173.196 126.34 124.188 126.34C63.6674 126.294 55.9926 125.508 37.1291 117.049C13.1798 106.371 0.234232 87.6499 0.00306181 63.2434C-0.228109 36.387 12.625 18.6368 40.5966 7.31176L56.1313 0.979004H240.652V37.5426L153.454 38.3746C73.8852 39.1142 65.7942 39.4378 60.7085 42.165C42.261 52.1033 42.9083 75.8627 61.8181 84.368C67.736 87.0028 75.9195 87.4188 132.279 88.1584C174.814 88.7131 199.919 90.5312 207.594 93.6129C222.482 99.6221 239.958 114.969 245.321 126.756Z" fill="white"/>
<path d="M350.597 0.0541992H302.005V214.212H350.597V0.0541992Z" fill="white"/>
<path d="M683.625 0.377767H707.435V214.536H658.843L658.335 140.438L657.78 66.3863L635.033 91.9023C563.231 172.425 565.173 170.484 555.048 171.039C546.171 171.501 545.662 171.27 538.866 163.55C493.51 112.01 470.162 85.6157 461.562 76.2784L451.206 65.0458L450.189 139.375L449.172 213.704L425.407 214.166L401.597 214.628V0.331543H452.316L470.532 20.6703C480.565 31.8566 495.452 48.4975 503.635 57.6499C511.773 66.7561 526.706 83.397 536.785 94.6295L555.048 115.015L561.012 108.728C567.485 101.933 634.709 26.8644 647.701 11.9801C652.047 6.94165 656.578 2.27297 657.734 1.62583C658.89 0.932461 670.541 0.377767 683.625 0.377767Z" fill="white"/>
<path d="M1007.59 56.8179C1000.42 30.1463 974.025 7.91236 942.494 1.9494C937.269 0.932463 897.647 0.239096 846.003 0.192871H758.436V214.351H807.028V153.15L874.345 152.549C939.396 151.994 942.078 151.855 953.22 148.111C976.106 140.438 998.622 120.423 1005.7 101.563C1009.3 91.9485 1010.32 67.1259 1007.59 56.8179ZM953.867 99.9453C950.492 103.828 943.742 108.728 938.841 110.854C930.057 114.691 928.901 114.737 868.473 114.737H807.028V38.1894L869.305 38.6979C940.136 39.2526 942.17 39.6224 953.867 53.1661C959.6 59.8687 959.924 61.0705 959.924 76.5557C959.924 92.0409 959.6 93.2428 953.867 99.9453Z" fill="white"/>
<path d="M1291.64 201.316L1291.82 214.166L1176.01 214.582L1060.14 215.045V0.70166L1083.68 1.16391L1107.16 1.67237L1107.44 89.2216L1107.76 176.817H1291.04L1291.22 182.641C1291.36 185.831 1291.54 194.244 1291.64 201.316Z" fill="white"/>
<path d="M1701.66 0.516113L1701.15 107.156L1700.6 213.842L1676.83 214.304L1653.02 214.767V0.516113H1701.66Z" fill="white"/>
<path d="M1526.52 0.23877H1602.02V38.2353L1525.6 38.7438C1474.62 39.0828 1445.41 40.6852 1437.98 43.5511C1420.74 50.2999 1408.81 60.007 1400.07 74.5215C1392.44 87.187 1392.44 87.2795 1392.44 108.081C1392.44 128.882 1392.63 129.344 1399.01 139.883C1406.92 153.057 1421.39 164.706 1437.57 170.946C1445.27 173.904 1474.62 175.553 1525.6 175.892L1602.02 176.354V214.397L1526.62 214.304C1459.11 214.212 1449.59 213.888 1436.41 211.069C1390.04 201.084 1356.15 172.101 1345.65 133.365C1340.71 115.199 1342.42 86.4012 1349.4 70.2689C1360.22 45.169 1384.68 22.1492 1412.09 11.1478C1438.45 0.608566 1442.56 0.23877 1526.52 0.23877Z" fill="white"/>
<path d="M2095.48 47.0186C2082.44 25.6629 2055.3 7.77401 2028.12 2.64309C2022.57 1.57992 1983.87 0.886557 1929.59 0.840332C1846.05 0.840332 1839.34 1.02523 1827.18 4.12227C1792.23 12.9511 1762.23 39.7151 1754.92 68.5592C1751.5 81.9643 1752.1 135.585 1755.8 148.435C1760.24 163.92 1769.99 177.834 1785.02 190.13C1799.49 201.963 1812.99 208.666 1829.82 212.364C1846.37 216.015 2012.03 216.108 2029.04 212.456C2061.96 205.43 2089.05 184.952 2101.49 157.634C2105.51 148.805 2106.07 144.044 2106.67 112.472C2107.46 72.3034 2106.12 64.4452 2095.48 47.0186ZM2055.03 151.255C2049.11 160.361 2032.51 172.379 2022.52 174.829C2016.84 176.216 1989.05 176.817 1928.53 176.817C1871.23 176.817 1839.1 175.399 1832.13 172.564C1820.06 167.618 1810.59 159.437 1804.53 148.666C1800.65 141.825 1800.28 138.173 1800.28 108.59C1800.28 86.8949 1802.63 72.2263 1807.35 64.5839C1815.12 52.0571 1826.81 43.9678 1841.98 40.6396C1847.11 39.484 1879.98 39.0218 1935.46 39.3453C2018.78 39.8076 2021.23 39.9463 2029.14 43.4131C2038.71 47.712 2050.5 57.4653 2055.72 65.5546C2059.05 70.7318 2059.51 75.4929 2059.51 107.896C2059.51 142.38 2059.23 144.83 2055.03 151.255Z" fill="#0457FC"/>
<path d="M2095.48 47.0186C2082.44 25.6629 2055.3 7.77401 2028.12 2.64309C2022.57 1.57992 1983.87 0.886557 1929.59 0.840332C1846.05 0.840332 1839.34 1.02523 1827.18 4.12227C1792.23 12.9511 1762.23 39.7151 1754.92 68.5592C1751.5 81.9643 1752.1 135.585 1755.8 148.435C1760.24 163.92 1769.99 177.834 1785.02 190.13C1799.49 201.963 1812.99 208.666 1829.82 212.364C1846.37 216.015 2012.03 216.108 2029.04 212.456C2061.96 205.43 2089.05 184.952 2101.49 157.634C2105.51 148.805 2106.07 144.044 2106.67 112.472C2107.46 72.3034 2106.12 64.4452 2095.48 47.0186ZM2055.03 151.255C2049.11 160.361 2032.51 172.379 2022.52 174.829C2016.84 176.216 1989.05 176.817 1928.53 176.817C1871.23 176.817 1839.1 175.399 1832.13 172.564C1820.06 167.618 1810.59 159.437 1804.53 148.666C1800.65 141.825 1800.28 138.173 1800.28 108.59C1800.28 86.8949 1802.63 72.2263 1807.35 64.5839C1815.12 52.0571 1826.81 43.9678 1841.98 40.6396C1847.11 39.484 1879.98 39.0218 1935.46 39.3453C2018.78 39.8076 2021.23 39.9463 2029.14 43.4131C2038.71 47.712 2050.5 57.4653 2055.72 65.5546C2059.05 70.7318 2059.51 75.4929 2059.51 107.896C2059.51 142.38 2059.23 144.83 2055.03 151.255Z" stroke="url(#paint0_linear_54_3)" stroke-width="1.68033"/>
<path d="M2095.48 47.0186C2082.44 25.6629 2055.3 7.77401 2028.12 2.64309C2022.57 1.57992 1983.87 0.886557 1929.59 0.840332C1846.05 0.840332 1839.34 1.02523 1827.18 4.12227C1792.23 12.9511 1762.23 39.7151 1754.92 68.5592C1751.5 81.9643 1752.1 135.585 1755.8 148.435C1760.24 163.92 1769.99 177.834 1785.02 190.13C1799.49 201.963 1812.99 208.666 1829.82 212.364C1846.37 216.015 2012.03 216.108 2029.04 212.456C2061.96 205.43 2089.05 184.952 2101.49 157.634C2105.51 148.805 2106.07 144.044 2106.67 112.472C2107.46 72.3034 2106.12 64.4452 2095.48 47.0186ZM2055.03 151.255C2049.11 160.361 2032.51 172.379 2022.52 174.829C2016.84 176.216 1989.05 176.817 1928.53 176.817C1871.23 176.817 1839.1 175.399 1832.13 172.564C1820.06 167.618 1810.59 159.437 1804.53 148.666C1800.65 141.825 1800.28 138.173 1800.28 108.59C1800.28 86.8949 1802.63 72.2263 1807.35 64.5839C1815.12 52.0571 1826.81 43.9678 1841.98 40.6396C1847.11 39.484 1879.98 39.0218 1935.46 39.3453C2018.78 39.8076 2021.23 39.9463 2029.14 43.4131C2038.71 47.712 2050.5 57.4653 2055.72 65.5546C2059.05 70.7318 2059.51 75.4929 2059.51 107.896C2059.51 142.38 2059.23 144.83 2055.03 151.255Z" stroke="url(#paint1_linear_54_3)" stroke-width="1.68033"/>
<path d="M2419.12 0.70166V214.86H2370.67L2346.08 191.193C2332.57 178.204 2295.86 143.212 2264.47 113.489L2207.47 59.453L2206.49 136.74L2205.48 214.028L2181.67 214.49L2157.86 214.952V0.70166H2208.3L2234.56 25.1544C2277.74 65.416 2307.42 93.5667 2339.32 124.306L2369.52 153.427L2370.02 77.0645L2370.58 0.70166H2419.12Z" fill="white"/>
<defs>
<linearGradient id="paint0_linear_54_3" x1="1679.63" y1="-12.5482" x2="1941.77" y2="170.608" gradientUnits="userSpaceOnUse">
<stop offset="0.159376" stop-color="white"/>
<stop offset="1" stop-color="#999999" stop-opacity="0"/>
</linearGradient>
<linearGradient id="paint1_linear_54_3" x1="1988.82" y1="116.837" x2="2118.2" y2="215.137" gradientUnits="userSpaceOnUse">
<stop stop-opacity="0"/>
<stop offset="1" stop-color="white"/>
</linearGradient>
</defs>
</svg>
