<svg width="420" height="420" viewBox="0 0 420 420" fill="none" xmlns="http://www.w3.org/2000/svg">
<path d="M418.357 185.204C416.467 168.854 412.687 153.074 407.237 138.094C402.697 125.544 396.977 113.544 390.207 102.234C386.117 95.3744 381.637 88.7744 376.807 82.4544C367.307 70.0244 356.447 58.6844 344.457 48.6744C317.087 26.3244 284.167 10.9944 249.347 4.11444C248.587 3.96444 247.837 3.81444 247.077 3.67444C246.317 3.53444 245.557 3.39444 244.787 3.25444C243.067 2.95444 241.337 2.66444 239.607 2.40444C234.627 1.65444 229.617 1.07444 224.587 0.664444C223.867 0.604444 223.137 0.554444 222.417 0.504444C221.587 0.454444 220.757 0.394444 219.927 0.344444C218.267 0.254444 216.607 0.174444 214.947 0.114444C214.117 0.0844444 213.287 0.0644444 212.457 0.0444444C211.767 0.0244444 211.077 0.0144444 210.387 0.00444444H210.127C209.837 0.00444444 209.557 0.00444444 209.267 0.00444444H209.137C209.137 0.00444444 209.027 -0.00555556 208.967 0.00444444C208.697 0.00444444 208.427 0.00444444 208.157 0.00444444H207.897C207.207 0.0144444 206.517 0.0244444 205.827 0.0444444C204.997 0.0644444 204.167 0.0844444 203.337 0.114444C201.677 0.174444 200.017 0.254444 198.357 0.344444C197.527 0.394444 196.697 0.454444 195.867 0.504444C195.147 0.554444 194.417 0.604444 193.697 0.664444C188.667 1.07444 183.657 1.65444 178.677 2.40444C176.947 2.66444 175.217 2.95444 173.497 3.25444C172.727 3.39444 171.967 3.53444 171.207 3.67444C170.447 3.81444 169.697 3.96444 168.937 4.11444C161.897 5.50444 154.927 7.24444 148.077 9.31444C67.1568 33.7544 1.24682 104.654 0.00682264 202.784C-0.0431774 206.514 0.186823 210.254 0.526823 213.974C0.566823 216.254 0.646823 218.524 0.766823 220.784C1.05682 226.304 1.56682 231.774 2.27682 237.174C7.03682 273.484 21.0968 306.874 41.9968 334.874C46.6668 341.144 51.6968 347.144 57.0268 352.844C60.6968 356.764 64.5168 360.534 68.4668 364.164C96.6268 389.984 131.867 408.214 170.937 415.604C172.737 415.944 174.557 416.264 176.377 416.554C186.727 418.234 197.347 419.144 208.147 419.244C208.767 419.244 209.387 419.244 210.007 419.244H210.117C210.457 419.244 210.807 419.244 211.147 419.244C211.197 419.244 211.257 419.244 211.307 419.244C214.727 419.224 218.127 419.124 221.507 418.944C221.627 418.944 221.737 418.944 221.847 418.924C330.047 412.964 416.367 324.964 419.657 216.064C419.727 213.924 419.757 211.774 419.757 209.614C419.757 201.354 419.277 193.214 418.347 185.204H418.357ZM333.177 267.654C313.717 306.124 261.657 335.474 235.847 285.294C235.337 284.304 234.847 283.304 234.357 282.294C220.987 254.364 217.927 220.194 213.197 190.034C211.857 188.054 210.427 187.354 209.147 187.624C208.897 187.564 208.637 187.554 208.377 187.574C207.307 187.674 206.167 188.434 205.087 190.034C200.187 221.284 197.077 256.834 182.437 285.294C172.587 304.454 158.907 312.014 144.677 311.914C144.407 311.904 144.147 311.904 143.887 311.904C120.927 311.554 96.5968 291.334 84.6268 267.654C48.2768 195.784 85.7068 110.694 158.927 82.4044C175.097 76.1544 191.757 73.2444 208.157 73.2644C208.487 73.2644 208.817 73.2644 209.147 73.2744H210.127C226.377 73.2944 242.867 76.2144 258.877 82.4044C332.097 110.694 369.527 195.784 333.177 267.654Z" fill="white"/>
<path d="M232.207 178.674C228.857 184.154 221.517 174.664 217.907 172.334C214.317 170.004 211.517 169.044 209.147 169.004C206.777 169.044 203.967 170.004 200.377 172.334C196.767 174.664 189.427 184.154 186.077 178.674C180.307 169.254 192.157 143.434 197.867 134.854C201.597 129.264 204.807 125.264 208.157 124.244C208.487 124.144 208.817 124.074 209.147 124.034C209.477 124.074 209.807 124.144 210.127 124.244C213.477 125.264 216.687 129.264 220.417 134.854C226.127 143.434 237.977 169.254 232.207 178.674Z" fill="#0457FC"/>
</svg>
